<?xml version="1.0" ?><!DOCTYPE svg  PUBLIC '-//W3C//DTD SVG 1.1//EN'  'http://www.w3.org/Graphics/SVG/1.1/DTD/svg11.dtd'><svg xmlns="http://www.w3.org/2000/svg" xmlns:xlink="http://www.w3.org/1999/xlink"><symbol enable-background="new 0 0 32 32" viewBox="0 0 32 32" xml:space="preserve" id="certificate" xmlns="http://www.w3.org/2000/svg"><g id="aApproved"/><g id="aApproved_1_"/><g id="aFile_Approve"/><g id="aFolder_Approved"/><g id="aSecurity_Approved"/><g id="aCertificate_Approved"><g><path d="M30.538,25.184l-6.115-6.115C26.089,17.094,27,14.621,27,12c0-0.286-0.011-0.584-0.033-0.859    c-0.044-0.551-0.541-0.975-1.076-0.917c-0.551,0.044-0.961,0.526-0.917,1.076C24.991,11.524,25,11.767,25,12    c0,2.421-0.946,4.69-2.662,6.388c-1.309,1.29-2.947,2.144-4.748,2.47c-0.954,0.185-2.122,0.197-3.241-0.012    c-1.783-0.325-3.413-1.184-4.712-2.483C7.937,16.662,7,14.402,7,12c0-4.962,4.038-9,9-9c2.421,0,4.694,0.949,6.399,2.673    c0.388,0.392,1.022,0.396,1.414,0.008c0.393-0.388,0.396-1.021,0.008-1.414C21.737,2.16,18.959,1,16,1C9.935,1,5,5.935,5,12    c0,2.601,0.901,5.063,2.55,7.036l-6.257,6.257c-0.286,0.286-0.372,0.716-0.217,1.09C1.231,26.756,1.596,27,2,27h3v3    c0,0.404,0.244,0.769,0.617,0.924C5.741,30.975,5.871,31,6,31c0.26,0,0.516-0.102,0.707-0.293l7.819-7.819    C15.017,22.955,15.509,23,16,23c0.499,0,0.971-0.042,1.424-0.102l7.809,7.809C25.424,30.898,25.68,31,25.94,31    c0.129,0,0.259-0.025,0.383-0.076c0.374-0.155,0.617-0.52,0.617-0.924v-3h3c0.003,0,0.007,0,0.01,0c0.595-0.028,1.01-0.444,1.01-1    C30.96,25.663,30.793,25.365,30.538,25.184z M7,27.586V26c0-0.552-0.448-1-1-1H4.414l4.547-4.547    c0.062,0.051,0.128,0.096,0.19,0.146c0.154,0.124,0.31,0.245,0.47,0.359c0.092,0.066,0.186,0.128,0.28,0.191    c0.157,0.105,0.315,0.207,0.477,0.303c0.098,0.059,0.197,0.116,0.297,0.171c0.166,0.092,0.334,0.179,0.504,0.262    c0.099,0.048,0.197,0.097,0.297,0.142c0.186,0.084,0.375,0.16,0.565,0.233c0.068,0.026,0.133,0.058,0.202,0.083L7,27.586z     M25.94,25c-0.552,0-1,0.448-1,1v1.586l-5.23-5.231c0.076-0.027,0.149-0.063,0.225-0.092c0.179-0.069,0.357-0.139,0.533-0.217    c0.109-0.049,0.216-0.102,0.324-0.153c0.162-0.079,0.322-0.16,0.479-0.247c0.107-0.059,0.213-0.119,0.318-0.181    c0.156-0.092,0.308-0.188,0.459-0.288c0.1-0.066,0.199-0.131,0.296-0.2c0.158-0.112,0.312-0.23,0.464-0.351    c0.064-0.051,0.132-0.096,0.195-0.148L27.526,25H25.94z"/><path d="M11.376,10.299c-0.402-0.377-1.036-0.356-1.413,0.047c-0.377,0.403-0.356,1.036,0.047,1.413l5.313,4.971    C15.514,16.91,15.76,17,16.005,17s0.491-0.09,0.683-0.27l10.688-10c0.403-0.377,0.424-1.01,0.047-1.413    c-0.378-0.404-1.011-0.424-1.413-0.047l-10.004,9.36L11.376,10.299z"/></g></g><g id="aUser_Approved"/><g id="aID_Card_Approved"/><g id="aAndroid_Approved"/><g id="aPrivacy_Approved"/><g id="aApproved_2_"/><g id="aMessage_Approved"/><g id="aUpload_Approved"/><g id="aDownload_Approved"/><g id="aEmail_Approved"/><g id="aData_Approved"/></symbol><symbol viewBox="0 0 100 100" id="diploma" xmlns="http://www.w3.org/2000/svg"><path d="M95.49,4.49h-91A1.51,1.51,0,0,0,3,6V68.41a1.51,1.51,0,0,0,1.51,1.51H33.19a17.19,17.19,0,0,0,4.44,8.29L32.94,89.64a1.5,1.5,0,0,0,1.79,2l5-1.35,2.57,4.44a1.51,1.51,0,0,0,1.3.76h.1a1.51,1.51,0,0,0,1.3-.93l4.57-11.11.48,0,.48,0,4.57,11.11a1.51,1.51,0,0,0,1.29.93h.1a1.5,1.5,0,0,0,1.3-.76l2.58-4.44,4.95,1.35a1.5,1.5,0,0,0,1.79-2l-4.7-11.42a17.2,17.2,0,0,0,4.45-8.3H95.49A1.51,1.51,0,0,0,97,68.41V6A1.51,1.51,0,0,0,95.49,4.49Zm-1.5,10a8.48,8.48,0,0,1-7.49-7H94Zm-81-7a8.48,8.48,0,0,1-6.93,7V7.5ZM6,59.92a8.48,8.48,0,0,1,6.94,7H6ZM43.33,90.6l-1.62-2.8a1.49,1.49,0,0,0-1.7-.7L36.89,88,40,80.28a17.2,17.2,0,0,0,6.37,2.82ZM35.8,66.27A14.2,14.2,0,1,1,50,80.47,14.22,14.22,0,0,1,35.8,66.27ZM60,87.1a1.48,1.48,0,0,0-1.7.7l-1.62,2.8-3.08-7.5A17.2,17.2,0,0,0,60,80.28L63.11,88Zm-10-38A17.23,17.23,0,0,0,32.79,66.27c0,.22,0,.42,0,.64H16a11.51,11.51,0,0,0-10-10V17.49a11.5,11.5,0,0,0,10-10H83.46A11.49,11.49,0,0,0,94,17.55V56.82A11.49,11.49,0,0,0,83.45,66.91H67.18c0-.22,0-.42,0-.64A17.23,17.23,0,0,0,50,49.06ZM86.49,66.91A8.5,8.5,0,0,1,94,59.83v7.08Z"/><path d="M31.43 16.49H68.57a1.51 1.51 0 100-3H31.43a1.51 1.51 0 100 3zM16.11 32.94H83.89a1.51 1.51 0 000-3H16.11a1.51 1.51 0 000 3zM85.39 42.48A1.51 1.51 0 0083.89 41H16.11a1.51 1.51 0 000 3H83.89A1.5 1.5 0 0085.39 42.48zM56.14 69.18l4-3.86a1.51 1.51 0 00-.83-2.57L53.8 62l-2.45-5a1.5 1.5 0 00-2.7 0L46.2 62l-5.47.79a1.51 1.51 0 00-.83 2.57l4 3.86-.94 5.44a1.54 1.54 0 00.6 1.48 1.52 1.52 0 001.59.11L50 73.64l4.89 2.57a1.45 1.45 0 00.7.17 1.49 1.49 0 001.49-1.76zm-2.67-1.61A1.53 1.53 0 0053 68.9l.55 3.23L50.7 70.61a1.45 1.45 0 00-1.4 0l-2.89 1.52L47 68.9a1.53 1.53 0 00-.43-1.33l-2.34-2.28 3.23-.47A1.5 1.5 0 0048.55 64L50 61.07 51.45 64a1.5 1.5 0 001.13.82l3.23.47z"/></symbol><symbol enable-background="new 0 0 50 50" id="female" viewBox="0 0 50 50" xml:space="preserve" xmlns="http://www.w3.org/2000/svg"><circle cx="25" cy="25" r="24" stroke-linecap="round" stroke-miterlimit="10" stroke-width="2"/><rect height="50" width="50"/><path d="M29.933,35.528  c-0.026-0.287-0.045-0.748-0.06-1.226c4.345-0.445,7.393-1.487,7.393-2.701c-0.012-0.002-0.011-0.05-0.011-0.07  c-3.248-2.927,2.816-23.728-8.473-23.306c-0.709-0.6-1.95-1.133-3.73-1.133c-15.291,1.157-8.53,20.8-12.014,24.508  c-0.002,0.001-0.005,0.001-0.007,0.001c0,0.002,0.001,0.004,0.001,0.006c0,0.001-0.001,0.002-0.001,0.002s0.001,0,0.002,0.001  c0.014,1.189,2.959,2.212,7.178,2.668c-0.012,0.29-0.037,0.649-0.092,1.25c-1.282,3.447-7.794,3.288-11.495,6.718  c2.023,1.766,8.908,6.882,16.47,6.882s13.842-3.589,16.346-6.608C37.731,39.188,31.202,38.941,29.933,35.528z" stroke-linecap="round" stroke-miterlimit="10" stroke-width="2"/></symbol><symbol viewBox="0 0 64 64" id="questionnaire" xmlns="http://www.w3.org/2000/svg"><path d="M50,52h2v3a5,5,0,0,1-5,5H15a5,5,0,0,1-5-5V13a5,5,0,0,1,5-5h5v2H15a3,3,0,0,0-3,3V55a3,3,0,0,0,3,3H47a3,3,0,0,0,3-3Zm0-39v5h2V13a5,5,0,0,0-5-5H42v2h5A3,3,0,0,1,50,13ZM20,14V12H15a1,1,0,0,0-1,1V55a1,1,0,0,0,1,1H47a1,1,0,0,0,1-1V51.94H46V54H16V14Zm26,4h2V13a1,1,0,0,0-1-1H42v2h4ZM22,17V9a1,1,0,0,1,1-1h4a4,4,0,0,1,8,0h4a1,1,0,0,1,1,1v8a1,1,0,0,1-1,1H23A1,1,0,0,1,22,17Zm2-1H38V10H34a1,1,0,0,1-1-1V8a2,2,0,0,0-4,0V9a1,1,0,0,1-1,1H24Zm4-2h6V12H28Zm4,11H42V23H32Zm10,4H32v2H42ZM32,37H42V35H32Zm0,6H42V41H32ZM21,41h6a1,1,0,0,1,1,1v6a1,1,0,0,1-1,1H21a1,1,0,0,1-1-1V42A1,1,0,0,1,21,41Zm1,6h4V43H22Zm10,2H42V47H32ZM22.45,28.83A1,1,0,0,0,23,29a1,1,0,0,0,.71-.29l4-4-1.42-1.42-3.42,3.42-2.32-1.54-1.1,1.66Zm.42,5.88-2.32-1.54-1.1,1.66,3,2A1,1,0,0,0,23,37a1,1,0,0,0,.71-.29l4-4-1.42-1.42ZM54,23V45a1.08,1.08,0,0,1-.21.62l-3.92,5a1,1,0,0,1-.78.38h0a1,1,0,0,1-.77-.37l-4.08-5A1,1,0,0,1,44,45V23a3,3,0,0,1,3-3h4A3,3,0,0,1,54,23Zm-8,2h6V23a1,1,0,0,0-1-1H47a1,1,0,0,0-1,1Zm6,2H46V44.64l3.07,3.76L52,44.65Z"/></symbol><symbol viewBox="0 0 24 24" id="user" xmlns="http://www.w3.org/2000/svg"><path d="M18.5588 19.5488C17.5654 16.8918 15.0036 15 12 15C8.99638 15 6.4346 16.8918 5.44117 19.5488M18.5588 19.5488C20.6672 17.7154 22 15.0134 22 12C22 6.47715 17.5228 2 12 2C6.47715 2 2 6.47715 2 12C2 15.0134 3.33285 17.7154 5.44117 19.5488M18.5588 19.5488C16.8031 21.0756 14.5095 22 12 22C9.49052 22 7.19694 21.0756 5.44117 19.5488M15 9C15 10.6569 13.6569 12 12 12C10.3431 12 9 10.6569 9 9C9 7.34315 10.3431 6 12 6C13.6569 6 15 7.34315 15 9Z" stroke-width="1.5" stroke-linejoin="round"/></symbol><symbol viewBox="0 0 512 512" id="woman" xmlns="http://www.w3.org/2000/svg"><path d="M79.7412 398.95A48.1224 48.1224 0 0 0 48 444.1133V504H64V444.1133a32.0793 32.0793 0 0 1 21.1611-30.1084l21.5489-7.7578-5.42-15.0547zM491.8389 328.9814l-23.8018-13.0185-13.0185-23.8018a8 8 0 0 0-14.0372 0l-13.0185 23.8018-23.8018 13.0185a8 8 0 0 0 0 14.0372l23.8018 13.0185 13.0185 23.8018a8 8 0 0 0 14.0372 0l13.0185-23.8018 23.8018-13.0185a8 8 0 0 0 0-14.0372zM458.3037 343.124a8.0078 8.0078 0 0 0-3.18 3.18L448 359.3281l-7.124-13.0244a8.0078 8.0078 0 0 0-3.18-3.18L424.6719 336l13.0244-7.124a8.0078 8.0078 0 0 0 3.18-3.18L448 312.6719l7.124 13.0244a8.0078 8.0078 0 0 0 3.18 3.18L471.3281 336zM107.8389 56.9814L84.0371 43.9629 71.0186 20.1611a8 8 0 0 0-14.0372 0L43.9629 43.9629 20.1611 56.9814a8 8 0 0 0 0 14.0372L43.9629 84.0371l13.0185 23.8018a8 8 0 0 0 14.0372 0L84.0371 84.0371l23.8018-13.0185a8 8 0 0 0 0-14.0372zM74.3037 71.124a8.0078 8.0078 0 0 0-3.18 3.18L64 87.3281 56.876 74.3037a8.0078 8.0078 0 0 0-3.18-3.18L40.6719 64l13.0244-7.124a8.0078 8.0078 0 0 0 3.18-3.18L64 40.6719l7.124 13.0244a8.0078 8.0078 0 0 0 3.18 3.18L87.3281 64zM412.1611 83.0186l16.045 8.7753 8.7753 16.045a8 8 0 0 0 14.0372 0l8.7753-16.045 16.045-8.7753a8 8 0 0 0 0-14.0372l-16.045-8.7753-8.7753-16.045a8 8 0 0 0-14.0372 0l-8.7753 16.045-16.045 8.7753a8 8 0 0 0 0 14.0372zm25.7784-9.9a7.996 7.996 0 0 0 3.18-3.18L444 64.6719l2.8809 5.2676a7.996 7.996 0 0 0 3.18 3.18L455.3281 76l-5.2676 2.8809a7.996 7.996 0 0 0-3.18 3.18L444 87.3281l-2.8809-5.2676a7.996 7.996 0 0 0-3.18-3.18L432.6719 76zM60.9814 291.8389a8 8 0 0 0 14.0372 0l8.7753-16.045 16.045-8.7753a8 8 0 0 0 0-14.0372l-16.045-8.7753-8.7753-16.045a8 8 0 0 0-14.0372 0l-8.7753 16.045-16.045 8.7753a8 8 0 0 0 0 14.0372l16.045 8.7753zm.9581-34.72a7.996 7.996 0 0 0 3.18-3.18L68 248.6719l2.8809 5.2676a7.996 7.996 0 0 0 3.18 3.18L79.3281 260l-5.2676 2.8809a7.996 7.996 0 0 0-3.18 3.18L68 271.3281l-2.8809-5.2676a7.996 7.996 0 0 0-3.18-3.18L56.6719 260z"/><path d="M432.2588,398.95,319.8682,358.49l-11.62-46.4788,21.655-13.8808A47.7935,47.7935,0,0,0,352,257.72V248h12a28.1475,28.1475,0,0,0,4-.2852V360h16V240h-.4229A27.9179,27.9179,0,0,0,392,220V188a27.9078,27.9078,0,0,0-8-19.5767V124a108.1422,108.1422,0,0,0-4.291-30.2354l-15.3633,4.4708A92.1511,92.1511,0,0,1,368,124v36H356a92.1048,92.1048,0,0,1-92-92V32h12a91.4752,91.4752,0,0,1,82.6436,51.5244l14.3632-7.0488A108.0036,108.0036,0,0,0,276,16H236A108.1218,108.1218,0,0,0,128,124v44.4233A27.9078,27.9078,0,0,0,120,188v32a27.9179,27.9179,0,0,0,8.4229,20H128V360h16V247.7148A28.1475,28.1475,0,0,0,148,248h12v10.042a47.7769,47.7769,0,0,0,22.2305,40.4961l21.4726,13.6643L192.1316,358.49,117.29,385.4326l5.42,15.0547,64.75-23.31-3.22,12.8824A7.9992,7.9992,0,0,0,187.2,398.4l64,48a8.001,8.001,0,0,0,9.6,0l64-48a7.9992,7.9992,0,0,0,2.9609-8.3408L324.54,377.1772l102.2989,36.8277A32.0793,32.0793,0,0,1,448,444.1133V504h16V444.1133A48.1224,48.1224,0,0,0,432.2588,398.95ZM352,176h12a12.0131,12.0131,0,0,1,12,12v32a12.0131,12.0131,0,0,1-12,12H352ZM160,232H148a12.0131,12.0131,0,0,1-12-12V188a12.0131,12.0131,0,0,1,12-12h12Zm-4-72H144V124a92.1048,92.1048,0,0,1,92-92h12V68A92.1048,92.1048,0,0,1,156,160Zm34.82,125.04A31.8528,31.8528,0,0,1,176,258.042V174.1431a108.384,108.384,0,0,0,80-65.3465,108.384,108.384,0,0,0,80,65.3465V257.72a31.86,31.86,0,0,1-14.7314,26.94L273.19,315.4775a32.104,32.104,0,0,1-34.4492.0577ZM256,430l-54.95-41.2129,16.8816-67.53,12.22,7.7764a48.1554,48.1554,0,0,0,51.6738-.085l12.2092-7.8261,16.9158,67.665Z"/><path d="M304,260v-4H288v4a12.0131,12.0131,0,0,1-12,12H236a12.0131,12.0131,0,0,1-12-12v-4H208v4a28.0314,28.0314,0,0,0,28,28h40A28.0314,28.0314,0,0,0,304,260Z"/></symbol></svg>