<?xml version="1.0" ?><!DOCTYPE svg  PUBLIC '-//W3C//DTD SVG 1.1//EN'  'http://www.w3.org/Graphics/SVG/1.1/DTD/svg11.dtd'><svg viewBox="0 0 512 512" xmlns="http://www.w3.org/2000/svg" xmlns:xlink="http://www.w3.org/1999/xlink"><style>:root>svg{display:none}:root>svg:target{display:block}</style><svg xml:space="preserve" viewBox="0 0 32 32" id="certificate" xmlns="http://www.w3.org/2000/svg"><path d="m30.538 25.184-6.115-6.115A10.898 10.898 0 0 0 27 12c0-.286-.011-.584-.033-.859-.044-.551-.541-.975-1.076-.917a1 1 0 0 0-.917 1.076c.017.224.026.467.026.7 0 2.421-.946 4.69-2.662 6.388a9.025 9.025 0 0 1-4.748 2.47c-.954.185-2.122.197-3.241-.012a8.9 8.9 0 0 1-4.712-2.483A8.945 8.945 0 0 1 7 12c0-4.962 4.038-9 9-9 2.421 0 4.694.949 6.399 2.673a1 1 0 0 0 1.422-1.406A10.924 10.924 0 0 0 16 1C9.935 1 5 5.935 5 12c0 2.601.901 5.063 2.55 7.036l-6.257 6.257A1 1 0 0 0 2 27h3v3a1.002 1.002 0 0 0 1.707.707l7.819-7.819c.491.067.983.112 1.474.112.499 0 .971-.042 1.424-.102l7.809 7.809A1 1 0 0 0 26.94 30v-3h3.01c.595-.028 1.01-.444 1.01-1a1 1 0 0 0-.422-.816zM7 27.586V26a1 1 0 0 0-1-1H4.414l4.547-4.547c.062.051.128.096.19.146.154.124.31.245.47.359.092.066.186.128.28.191a10.359 10.359 0 0 0 1.278.736c.099.048.197.097.297.142.186.084.375.16.565.233.068.026.133.058.202.083L7 27.586zM25.94 25a1 1 0 0 0-1 1v1.586l-5.23-5.231c.076-.027.149-.063.225-.092.179-.069.357-.139.533-.217.109-.049.216-.102.324-.153a10.3 10.3 0 0 0 .797-.428c.156-.092.308-.188.459-.288.1-.066.199-.131.296-.2.158-.112.312-.23.464-.351.064-.051.132-.096.195-.148L27.526 25H25.94z"/><path d="M11.376 10.299a1 1 0 0 0-1.366 1.46l5.313 4.971a.997.997 0 0 0 1.365 0l10.688-10a1 1 0 0 0-1.366-1.46l-10.004 9.36-4.63-4.331z"/></svg><svg viewBox="0 0 100 100" id="diploma" xmlns="http://www.w3.org/2000/svg"><path d="M95.49 4.49h-91A1.51 1.51 0 0 0 3 6v62.41a1.51 1.51 0 0 0 1.51 1.51h28.68a17.19 17.19 0 0 0 4.44 8.29l-4.69 11.43a1.5 1.5 0 0 0 1.79 2l5-1.35 2.57 4.44a1.51 1.51 0 0 0 1.3.76h.1a1.51 1.51 0 0 0 1.3-.93l4.57-11.11h.96l4.57 11.11a1.51 1.51 0 0 0 1.29.93h.1a1.5 1.5 0 0 0 1.3-.76l2.58-4.44 4.95 1.35a1.5 1.5 0 0 0 1.79-2l-4.7-11.42a17.2 17.2 0 0 0 4.45-8.3h28.63A1.51 1.51 0 0 0 97 68.41V6a1.51 1.51 0 0 0-1.51-1.51Zm-1.5 10a8.48 8.48 0 0 1-7.49-7H94Zm-81-7a8.48 8.48 0 0 1-6.93 7V7.5ZM6 59.92a8.48 8.48 0 0 1 6.94 7H6ZM43.33 90.6l-1.62-2.8a1.49 1.49 0 0 0-1.7-.7l-3.12.9L40 80.28a17.2 17.2 0 0 0 6.37 2.82ZM35.8 66.27A14.2 14.2 0 1 1 50 80.47a14.22 14.22 0 0 1-14.2-14.2ZM60 87.1a1.48 1.48 0 0 0-1.7.7l-1.62 2.8-3.08-7.5a17.2 17.2 0 0 0 6.4-2.82L63.11 88Zm-10-38a17.23 17.23 0 0 0-17.21 17.17v.64H16a11.51 11.51 0 0 0-10-10V17.49a11.5 11.5 0 0 0 10-10h67.46A11.49 11.49 0 0 0 94 17.55v39.27a11.49 11.49 0 0 0-10.55 10.09H67.18v-.64A17.23 17.23 0 0 0 50 49.06Zm36.49 17.81A8.5 8.5 0 0 1 94 59.83v7.08Z"/><path d="M31.43 16.49h37.14a1.51 1.51 0 1 0 0-3H31.43a1.51 1.51 0 1 0 0 3zM16.11 32.94h67.78a1.51 1.51 0 0 0 0-3H16.11a1.51 1.51 0 0 0 0 3zm69.28 9.54a1.51 1.51 0 0 0-1.5-1.48H16.11a1.51 1.51 0 0 0 0 3h67.78a1.5 1.5 0 0 0 1.5-1.52zm-29.25 26.7 4-3.86a1.51 1.51 0 0 0-.83-2.57L53.8 62l-2.45-5a1.5 1.5 0 0 0-2.7 0l-2.45 5-5.47.79a1.51 1.51 0 0 0-.83 2.57l4 3.86-.94 5.44a1.54 1.54 0 0 0 .6 1.48 1.52 1.52 0 0 0 1.59.11L50 73.64l4.89 2.57a1.45 1.45 0 0 0 .7.17 1.49 1.49 0 0 0 1.49-1.76zm-2.67-1.61A1.53 1.53 0 0 0 53 68.9l.55 3.23-2.85-1.52a1.45 1.45 0 0 0-1.4 0l-2.89 1.52.59-3.23a1.53 1.53 0 0 0-.43-1.33l-2.34-2.28 3.23-.47a1.5 1.5 0 0 0 1.09-.82L50 61.07 51.45 64a1.5 1.5 0 0 0 1.13.82l3.23.47z"/></svg><svg xml:space="preserve" viewBox="0 0 50 50" id="female" xmlns="http://www.w3.org/2000/svg"><circle cx="25" cy="25" fill="none" r="24" stroke="#000" stroke-linecap="round" stroke-miterlimit="10" stroke-width="2"/><path fill="none" d="M0 0h50v50H0z"/><path d="M29.933 35.528a24.382 24.382 0 0 1-.06-1.226c4.345-.445 7.393-1.487 7.393-2.701-.012-.002-.011-.05-.011-.07-3.248-2.927 2.816-23.728-8.473-23.306-.709-.6-1.95-1.133-3.73-1.133-15.291 1.157-8.53 20.8-12.014 24.508l-.007.001.001.006-.001.002.002.001c.014 1.189 2.959 2.212 7.178 2.668-.012.29-.037.649-.092 1.25-1.282 3.447-7.794 3.288-11.495 6.718 2.023 1.766 8.908 6.882 16.47 6.882s13.842-3.589 16.346-6.608c-3.709-3.332-10.238-3.579-11.507-6.992z" fill="none" stroke="#000" stroke-linecap="round" stroke-miterlimit="10" stroke-width="2"/></svg><svg viewBox="0 0 64 64" id="questionnaire" xmlns="http://www.w3.org/2000/svg"><path d="M50 52h2v3a5 5 0 0 1-5 5H15a5 5 0 0 1-5-5V13a5 5 0 0 1 5-5h5v2h-5a3 3 0 0 0-3 3v42a3 3 0 0 0 3 3h32a3 3 0 0 0 3-3Zm0-39v5h2v-5a5 5 0 0 0-5-5h-5v2h5a3 3 0 0 1 3 3Zm-30 1v-2h-5a1 1 0 0 0-1 1v42a1 1 0 0 0 1 1h32a1 1 0 0 0 1-1v-3.06h-2V54H16V14Zm26 4h2v-5a1 1 0 0 0-1-1h-5v2h4Zm-24-1V9a1 1 0 0 1 1-1h4a4 4 0 0 1 8 0h4a1 1 0 0 1 1 1v8a1 1 0 0 1-1 1H23a1 1 0 0 1-1-1Zm2-1h14v-6h-4a1 1 0 0 1-1-1V8a2 2 0 0 0-4 0v1a1 1 0 0 1-1 1h-4Zm4-2h6v-2h-6Zm4 11h10v-2H32Zm10 4H32v2h10Zm-10 8h10v-2H32Zm0 6h10v-2H32Zm-11-2h6a1 1 0 0 1 1 1v6a1 1 0 0 1-1 1h-6a1 1 0 0 1-1-1v-6a1 1 0 0 1 1-1Zm1 6h4v-4h-4Zm10 2h10v-2H32Zm-9.55-20.17A1 1 0 0 0 23 29a1 1 0 0 0 .71-.29l4-4-1.42-1.42-3.42 3.42-2.32-1.54-1.1 1.66Zm.42 5.88-2.32-1.54-1.1 1.66 3 2A1 1 0 0 0 23 37a1 1 0 0 0 .71-.29l4-4-1.42-1.42ZM54 23v22a1.08 1.08 0 0 1-.21.62l-3.92 5a1 1 0 0 1-.78.38 1 1 0 0 1-.77-.37l-4.08-5A1 1 0 0 1 44 45V23a3 3 0 0 1 3-3h4a3 3 0 0 1 3 3Zm-8 2h6v-2a1 1 0 0 0-1-1h-4a1 1 0 0 0-1 1Zm6 2h-6v17.64l3.07 3.76L52 44.65Z"/></svg><svg fill="none" viewBox="0 0 24 24" id="user" xmlns="http://www.w3.org/2000/svg"><path d="M18.559 19.549a7.003 7.003 0 0 0-13.118 0m13.118 0A9.976 9.976 0 0 0 22 12c0-5.523-4.477-10-10-10S2 6.477 2 12a9.977 9.977 0 0 0 3.441 7.549m13.118 0A9.961 9.961 0 0 1 12 22a9.961 9.961 0 0 1-6.559-2.451M15 9a3 3 0 1 1-6 0 3 3 0 0 1 6 0Z" stroke="#141718" stroke-width="1.5" stroke-linejoin="round"/></svg><svg viewBox="0 0 512 512" id="woman" xmlns="http://www.w3.org/2000/svg"><path d="M79.741 398.95A48.122 48.122 0 0 0 48 444.113V504h16v-59.887a32.08 32.08 0 0 1 21.161-30.108l21.549-7.758-5.42-15.055zm412.098-69.969-23.802-13.018-13.018-23.802a8 8 0 0 0-14.038 0l-13.018 23.802-23.802 13.018a8 8 0 0 0 0 14.038l23.802 13.018 13.018 23.802a8 8 0 0 0 14.038 0l13.018-23.802 23.802-13.018a8 8 0 0 0 0-14.038zm-33.535 14.143a8.008 8.008 0 0 0-3.18 3.18L448 359.328l-7.124-13.024a8.008 8.008 0 0 0-3.18-3.18L424.672 336l13.024-7.124a8.008 8.008 0 0 0 3.18-3.18L448 312.672l7.124 13.024a8.008 8.008 0 0 0 3.18 3.18L471.328 336zM107.839 56.981 84.037 43.963 71.02 20.16a8 8 0 0 0-14.038 0L43.963 43.963 20.16 56.98a8 8 0 0 0 0 14.038l23.802 13.018L56.98 107.84a8 8 0 0 0 14.038 0l13.018-23.802L107.84 71.02a8 8 0 0 0 0-14.038zM74.304 71.124a8.008 8.008 0 0 0-3.18 3.18L64 87.328l-7.124-13.024a8.008 8.008 0 0 0-3.18-3.18L40.672 64l13.024-7.124a8.008 8.008 0 0 0 3.18-3.18L64 40.672l7.124 13.024a8.008 8.008 0 0 0 3.18 3.18L87.328 64zM412.16 83.019l16.045 8.775 8.775 16.045a8 8 0 0 0 14.038 0l8.775-16.045 16.045-8.775a8 8 0 0 0 0-14.038l-16.045-8.775-8.775-16.045a8 8 0 0 0-14.038 0l-8.775 16.045-16.045 8.775a8 8 0 0 0 0 14.038zm25.778-9.9a7.996 7.996 0 0 0 3.18-3.18L444 64.672l2.88 5.267a7.996 7.996 0 0 0 3.18 3.18L455.329 76l-5.267 2.88a7.996 7.996 0 0 0-3.18 3.18L444 87.329l-2.88-5.267a7.996 7.996 0 0 0-3.18-3.18L432.671 76zM60.981 291.839a8 8 0 0 0 14.038 0l8.775-16.045 16.045-8.775a8 8 0 0 0 0-14.038l-16.045-8.775-8.775-16.045a8 8 0 0 0-14.038 0l-8.775 16.045-16.045 8.775a8 8 0 0 0 0 14.038l16.045 8.775zm.959-34.72a7.996 7.996 0 0 0 3.18-3.18l2.88-5.267 2.88 5.267a7.996 7.996 0 0 0 3.18 3.18L79.329 260l-5.267 2.88a7.996 7.996 0 0 0-3.18 3.18L68 271.329l-2.88-5.267a7.996 7.996 0 0 0-3.18-3.18L56.671 260z"/><path d="m432.259 398.95-112.39-40.46-11.62-46.479 21.654-13.88A47.794 47.794 0 0 0 352 257.72V248h12a28.148 28.148 0 0 0 4-.285V360h16V240h-.423A27.918 27.918 0 0 0 392 220v-32a27.908 27.908 0 0 0-8-19.577V124a108.142 108.142 0 0 0-4.291-30.235l-15.363 4.47A92.151 92.151 0 0 1 368 124v36h-12a92.105 92.105 0 0 1-92-92V32h12a91.475 91.475 0 0 1 82.644 51.524l14.363-7.048A108.004 108.004 0 0 0 276 16h-40a108.122 108.122 0 0 0-108 108v44.423A27.908 27.908 0 0 0 120 188v32a27.918 27.918 0 0 0 8.423 20H128v120h16V247.715a28.148 28.148 0 0 0 4 .285h12v10.042a47.777 47.777 0 0 0 22.23 40.496l21.473 13.664-11.571 46.288-74.842 26.943 5.42 15.054 64.75-23.31-3.22 12.883a8 8 0 0 0 2.96 8.34l64 48a8.001 8.001 0 0 0 9.6 0l64-48a8 8 0 0 0 2.96-8.34l-3.22-12.883 102.299 36.828A32.08 32.08 0 0 1 448 444.113V504h16v-59.887a48.122 48.122 0 0 0-31.741-45.163ZM352 176h12a12.013 12.013 0 0 1 12 12v32a12.013 12.013 0 0 1-12 12h-12Zm-192 56h-12a12.013 12.013 0 0 1-12-12v-32a12.013 12.013 0 0 1 12-12h12Zm-4-72h-12v-36a92.105 92.105 0 0 1 92-92h12v36a92.105 92.105 0 0 1-92 92Zm34.82 125.04A31.853 31.853 0 0 1 176 258.042v-83.899a108.384 108.384 0 0 0 80-65.346 108.384 108.384 0 0 0 80 65.346v83.577a31.86 31.86 0 0 1-14.731 26.94l-48.079 30.817a32.104 32.104 0 0 1-34.45.058ZM256 430l-54.95-41.213 16.882-67.53 12.22 7.777a48.155 48.155 0 0 0 51.673-.085l12.21-7.827 16.915 67.665Z"/><path d="M304 260v-4h-16v4a12.013 12.013 0 0 1-12 12h-40a12.013 12.013 0 0 1-12-12v-4h-16v4a28.031 28.031 0 0 0 28 28h40a28.031 28.031 0 0 0 28-28Z"/></svg></svg>