<svg xmlns="http://www.w3.org/2000/svg" viewBox="0 0 64 64" id="questionnaire"><path d="M50,52h2v3a5,5,0,0,1-5,5H15a5,5,0,0,1-5-5V13a5,5,0,0,1,5-5h5v2H15a3,3,0,0,0-3,3V55a3,3,0,0,0,3,3H47a3,3,0,0,0,3-3Zm0-39v5h2V13a5,5,0,0,0-5-5H42v2h5A3,3,0,0,1,50,13ZM20,14V12H15a1,1,0,0,0-1,1V55a1,1,0,0,0,1,1H47a1,1,0,0,0,1-1V51.94H46V54H16V14Zm26,4h2V13a1,1,0,0,0-1-1H42v2h4ZM22,17V9a1,1,0,0,1,1-1h4a4,4,0,0,1,8,0h4a1,1,0,0,1,1,1v8a1,1,0,0,1-1,1H23A1,1,0,0,1,22,17Zm2-1H38V10H34a1,1,0,0,1-1-1V8a2,2,0,0,0-4,0V9a1,1,0,0,1-1,1H24Zm4-2h6V12H28Zm4,11H42V23H32Zm10,4H32v2H42ZM32,37H42V35H32Zm0,6H42V41H32ZM21,41h6a1,1,0,0,1,1,1v6a1,1,0,0,1-1,1H21a1,1,0,0,1-1-1V42A1,1,0,0,1,21,41Zm1,6h4V43H22Zm10,2H42V47H32ZM22.45,28.83A1,1,0,0,0,23,29a1,1,0,0,0,.71-.29l4-4-1.42-1.42-3.42,3.42-2.32-1.54-1.1,1.66Zm.42,5.88-2.32-1.54-1.1,1.66,3,2A1,1,0,0,0,23,37a1,1,0,0,0,.71-.29l4-4-1.42-1.42ZM54,23V45a1.08,1.08,0,0,1-.21.62l-3.92,5a1,1,0,0,1-.78.38h0a1,1,0,0,1-.77-.37l-4.08-5A1,1,0,0,1,44,45V23a3,3,0,0,1,3-3h4A3,3,0,0,1,54,23Zm-8,2h6V23a1,1,0,0,0-1-1H47a1,1,0,0,0-1,1Zm6,2H46V44.64l3.07,3.76L52,44.65Z"></path></svg>