<svg xmlns="http://www.w3.org/2000/svg" width="512" height="512" viewBox="0 0 512 512" id="woman"><path d="M79.7412 398.95A48.1224 48.1224 0 0 0 48 444.1133V504H64V444.1133a32.0793 32.0793 0 0 1 21.1611-30.1084l21.5489-7.7578-5.42-15.0547zM491.8389 328.9814l-23.8018-13.0185-13.0185-23.8018a8 8 0 0 0-14.0372 0l-13.0185 23.8018-23.8018 13.0185a8 8 0 0 0 0 14.0372l23.8018 13.0185 13.0185 23.8018a8 8 0 0 0 14.0372 0l13.0185-23.8018 23.8018-13.0185a8 8 0 0 0 0-14.0372zM458.3037 343.124a8.0078 8.0078 0 0 0-3.18 3.18L448 359.3281l-7.124-13.0244a8.0078 8.0078 0 0 0-3.18-3.18L424.6719 336l13.0244-7.124a8.0078 8.0078 0 0 0 3.18-3.18L448 312.6719l7.124 13.0244a8.0078 8.0078 0 0 0 3.18 3.18L471.3281 336zM107.8389 56.9814L84.0371 43.9629 71.0186 20.1611a8 8 0 0 0-14.0372 0L43.9629 43.9629 20.1611 56.9814a8 8 0 0 0 0 14.0372L43.9629 84.0371l13.0185 23.8018a8 8 0 0 0 14.0372 0L84.0371 84.0371l23.8018-13.0185a8 8 0 0 0 0-14.0372zM74.3037 71.124a8.0078 8.0078 0 0 0-3.18 3.18L64 87.3281 56.876 74.3037a8.0078 8.0078 0 0 0-3.18-3.18L40.6719 64l13.0244-7.124a8.0078 8.0078 0 0 0 3.18-3.18L64 40.6719l7.124 13.0244a8.0078 8.0078 0 0 0 3.18 3.18L87.3281 64zM412.1611 83.0186l16.045 8.7753 8.7753 16.045a8 8 0 0 0 14.0372 0l8.7753-16.045 16.045-8.7753a8 8 0 0 0 0-14.0372l-16.045-8.7753-8.7753-16.045a8 8 0 0 0-14.0372 0l-8.7753 16.045-16.045 8.7753a8 8 0 0 0 0 14.0372zm25.7784-9.9a7.996 7.996 0 0 0 3.18-3.18L444 64.6719l2.8809 5.2676a7.996 7.996 0 0 0 3.18 3.18L455.3281 76l-5.2676 2.8809a7.996 7.996 0 0 0-3.18 3.18L444 87.3281l-2.8809-5.2676a7.996 7.996 0 0 0-3.18-3.18L432.6719 76zM60.9814 291.8389a8 8 0 0 0 14.0372 0l8.7753-16.045 16.045-8.7753a8 8 0 0 0 0-14.0372l-16.045-8.7753-8.7753-16.045a8 8 0 0 0-14.0372 0l-8.7753 16.045-16.045 8.7753a8 8 0 0 0 0 14.0372l16.045 8.7753zm.9581-34.72a7.996 7.996 0 0 0 3.18-3.18L68 248.6719l2.8809 5.2676a7.996 7.996 0 0 0 3.18 3.18L79.3281 260l-5.2676 2.8809a7.996 7.996 0 0 0-3.18 3.18L68 271.3281l-2.8809-5.2676a7.996 7.996 0 0 0-3.18-3.18L56.6719 260z"></path><path d="M432.2588,398.95,319.8682,358.49l-11.62-46.4788,21.655-13.8808A47.7935,47.7935,0,0,0,352,257.72V248h12a28.1475,28.1475,0,0,0,4-.2852V360h16V240h-.4229A27.9179,27.9179,0,0,0,392,220V188a27.9078,27.9078,0,0,0-8-19.5767V124a108.1422,108.1422,0,0,0-4.291-30.2354l-15.3633,4.4708A92.1511,92.1511,0,0,1,368,124v36H356a92.1048,92.1048,0,0,1-92-92V32h12a91.4752,91.4752,0,0,1,82.6436,51.5244l14.3632-7.0488A108.0036,108.0036,0,0,0,276,16H236A108.1218,108.1218,0,0,0,128,124v44.4233A27.9078,27.9078,0,0,0,120,188v32a27.9179,27.9179,0,0,0,8.4229,20H128V360h16V247.7148A28.1475,28.1475,0,0,0,148,248h12v10.042a47.7769,47.7769,0,0,0,22.2305,40.4961l21.4726,13.6643L192.1316,358.49,117.29,385.4326l5.42,15.0547,64.75-23.31-3.22,12.8824A7.9992,7.9992,0,0,0,187.2,398.4l64,48a8.001,8.001,0,0,0,9.6,0l64-48a7.9992,7.9992,0,0,0,2.9609-8.3408L324.54,377.1772l102.2989,36.8277A32.0793,32.0793,0,0,1,448,444.1133V504h16V444.1133A48.1224,48.1224,0,0,0,432.2588,398.95ZM352,176h12a12.0131,12.0131,0,0,1,12,12v32a12.0131,12.0131,0,0,1-12,12H352ZM160,232H148a12.0131,12.0131,0,0,1-12-12V188a12.0131,12.0131,0,0,1,12-12h12Zm-4-72H144V124a92.1048,92.1048,0,0,1,92-92h12V68A92.1048,92.1048,0,0,1,156,160Zm34.82,125.04A31.8528,31.8528,0,0,1,176,258.042V174.1431a108.384,108.384,0,0,0,80-65.3465,108.384,108.384,0,0,0,80,65.3465V257.72a31.86,31.86,0,0,1-14.7314,26.94L273.19,315.4775a32.104,32.104,0,0,1-34.4492.0577ZM256,430l-54.95-41.2129,16.8816-67.53,12.22,7.7764a48.1554,48.1554,0,0,0,51.6738-.085l12.2092-7.8261,16.9158,67.665Z"></path><path d="M304,260v-4H288v4a12.0131,12.0131,0,0,1-12,12H236a12.0131,12.0131,0,0,1-12-12v-4H208v4a28.0314,28.0314,0,0,0,28,28h40A28.0314,28.0314,0,0,0,304,260Z"></path></svg>